<svg width="53" height="64" viewBox="0 0 53 64" fill="none" xmlns="http://www.w3.org/2000/svg">
<path d="M39.9286 15.8889C39.9286 19.3072 38.5138 22.5856 35.9954 25.0027C33.4771 27.4198 30.0615 28.7778 26.5 28.7778C22.9385 28.7778 19.5229 27.4198 17.0046 25.0027C14.4862 22.5856 13.0714 19.3072 13.0714 15.8889C13.0714 12.4705 14.4862 9.1922 17.0046 6.77507C19.5229 4.35793 22.9385 3 26.5 3C30.0615 3 33.4771 4.35793 35.9954 6.77507C38.5138 9.1922 39.9286 12.4705 39.9286 15.8889ZM26.5 38.4444C20.2674 38.4444 14.2901 40.8208 9.88299 45.0508C5.47589 49.2808 3 55.0179 3 61H50C50 55.0179 47.5241 49.2808 43.117 45.0508C38.7099 40.8208 32.7326 38.4444 26.5 38.4444Z" stroke="#147DC8" stroke-width="5.63" stroke-linecap="round" stroke-linejoin="round"/>
</svg>
