<svg width="30" height="30" viewBox="0 0 30 30" fill="none" xmlns="http://www.w3.org/2000/svg">
<path d="M15 3.95578C15.7763 3.07568 16.8022 2.45285 17.9412 2.17015C19.0802 1.88745 20.2783 1.95829 21.376 2.37325C22.4737 2.78821 23.4191 3.5276 24.0863 4.49305C24.7534 5.4585 25.1108 6.60423 25.1108 7.77778C25.1108 8.95133 24.7534 10.0971 24.0863 11.0625C23.4191 12.028 22.4737 12.7674 21.376 13.1823C20.2783 13.5973 19.0802 13.6681 17.9412 13.3854C16.8022 13.1027 15.7763 12.4799 15 11.5998M19.3333 28H2V26.5556C2 24.257 2.91309 22.0526 4.53841 20.4273C6.16372 18.802 8.36812 17.8889 10.6667 17.8889C12.9652 17.8889 15.1696 18.802 16.7949 20.4273C18.4202 22.0526 19.3333 24.257 19.3333 26.5556V28ZM19.3333 28H28V26.5556C28.0002 25.0341 27.5999 23.5395 26.8393 22.2218C26.0788 20.9041 24.9847 19.8099 23.6672 19.0491C22.3497 18.2883 20.8551 17.8877 19.3336 17.8877C17.8122 17.8876 16.3176 18.2881 15 19.0488M16.4444 7.77778C16.4444 9.31014 15.8357 10.7797 14.7522 11.8633C13.6686 12.9468 12.199 13.5556 10.6667 13.5556C9.1343 13.5556 7.6647 12.9468 6.58116 11.8633C5.49762 10.7797 4.88889 9.31014 4.88889 7.77778C4.88889 6.24542 5.49762 4.77582 6.58116 3.69227C7.6647 2.60873 9.1343 2 10.6667 2C12.199 2 13.6686 2.60873 14.7522 3.69227C15.8357 4.77582 16.4444 6.24542 16.4444 7.77778Z" stroke="#BEC0C3" stroke-width="2.5" stroke-linecap="round" stroke-linejoin="round"/>
</svg>
