<svg width="20" height="23" viewBox="0 0 20 23" fill="none" xmlns="http://www.w3.org/2000/svg">
<path fill-rule="evenodd" clip-rule="evenodd" d="M5.00003 6.32159V4.97889C5.00003 3.91058 5.39512 2.88602 6.09839 2.13061C6.80166 1.37519 7.75549 0.950806 8.75006 0.950806H11.2501C12.2446 0.950806 13.1985 1.37519 13.9017 2.13061C14.605 2.88602 15.0001 3.91058 15.0001 4.97889V6.32159H17.5001C18.1632 6.32159 18.799 6.60452 19.2679 7.10812C19.7367 7.61173 20.0001 8.29477 20.0001 9.00698V13.8004C16.7996 15.0743 13.4132 15.7245 10.0001 15.7205C6.58692 15.7245 3.20048 15.0743 0 13.8004V9.00698C0 8.29477 0.263394 7.61173 0.732238 7.10812C1.20108 6.60452 1.83697 6.32159 2.50002 6.32159H5.00003ZM7.50005 4.97889C7.50005 4.62279 7.63175 4.28127 7.86617 4.02947C8.10059 3.77766 8.41854 3.6362 8.75006 3.6362H11.2501C11.5816 3.6362 11.8995 3.77766 12.134 4.02947C12.3684 4.28127 12.5001 4.62279 12.5001 4.97889V6.32159H7.50005V4.97889ZM8.75006 11.6924C8.75006 11.3363 8.88175 10.9948 9.11618 10.7429C9.3506 10.4911 9.66854 10.3497 10.0001 10.3497H10.0126C10.3441 10.3497 10.662 10.4911 10.8965 10.7429C11.1309 10.9948 11.2626 11.3363 11.2626 11.6924C11.2626 12.0485 11.1309 12.39 10.8965 12.6418C10.662 12.8936 10.3441 13.0351 10.0126 13.0351H10.0001C9.66854 13.0351 9.3506 12.8936 9.11618 12.6418C8.88175 12.39 8.75006 12.0485 8.75006 11.6924Z" fill="#333333"/>
<path d="M0 16.6494V19.7484C0 20.4606 0.263394 21.1436 0.732238 21.6472C1.20108 22.1508 1.83697 22.4337 2.50002 22.4337H17.5001C18.1632 22.4337 18.799 22.1508 19.2679 21.6472C19.7367 21.1436 20.0001 20.4606 20.0001 19.7484V16.6494C16.7781 17.8159 13.4002 18.4091 10.0001 18.4057C6.50504 18.4057 3.14127 17.788 0 16.6494Z" fill="#333333"/>
</svg>
