<svg width="16" height="22" viewBox="0 0 16 22" fill="none" xmlns="http://www.w3.org/2000/svg">
<path fill-rule="evenodd" clip-rule="evenodd" d="M2.34329 2.68006C3.84357 1.01125 5.87837 0.0737305 8.00008 0.0737305C10.1218 0.0737305 12.1566 1.01125 13.6569 2.68006C15.1572 4.34886 16 6.61224 16 8.97228C16 11.3323 15.1572 13.5957 13.6569 15.2645L8.00008 21.5567L2.34329 15.2645C1.60038 14.4382 1.01107 13.4573 0.609004 12.3776C0.20694 11.298 0 10.1409 0 8.97228C0 7.80369 0.20694 6.64654 0.609004 5.56692C1.01107 4.48729 1.60038 3.50633 2.34329 2.68006ZM8.00008 11.5146C8.60626 11.5146 9.1876 11.2467 9.61623 10.77C10.0449 10.2932 10.2857 9.64654 10.2857 8.97228C10.2857 8.29802 10.0449 7.65137 9.61623 7.17459C9.1876 6.69782 8.60626 6.42997 8.00008 6.42997C7.39391 6.42997 6.81257 6.69782 6.38394 7.17459C5.95531 7.65137 5.71451 8.29802 5.71451 8.97228C5.71451 9.64654 5.95531 10.2932 6.38394 10.77C6.81257 11.2467 7.39391 11.5146 8.00008 11.5146Z" fill="#333333"/>
</svg>
