<svg width="12" height="12" viewBox="0 0 12 12" fill="none" xmlns="http://www.w3.org/2000/svg">
<path fill-rule="evenodd" clip-rule="evenodd" d="M12 0.749625C11.9999 0.621827 11.9672 0.496166 11.9049 0.384566C11.8427 0.272966 11.7529 0.179129 11.6442 0.111958C11.5355 0.0447864 11.4114 0.00650977 11.2837 0.000759684C11.1561 -0.0049904 11.0291 0.0219767 10.9147 0.0791023L5.07225 2.9997H2.25C1.65326 2.9997 1.08097 3.23676 0.65901 3.65873C0.237053 4.0807 0 4.65302 0 5.24977C0 5.84653 0.237053 6.41885 0.65901 6.84082C1.08097 7.26279 1.65326 7.49985 2.25 7.49985H2.46L3.78825 11.487C3.83801 11.6364 3.93354 11.7663 4.06129 11.8584C4.18904 11.9505 4.34253 12 4.5 12H5.25C5.44891 12 5.63968 11.921 5.78033 11.7803C5.92098 11.6397 6 11.4489 6 11.25V7.96337L10.9147 10.4204C11.0291 10.4776 11.1561 10.5045 11.2837 10.4988C11.4114 10.493 11.5355 10.4548 11.6442 10.3876C11.7529 10.3204 11.8427 10.2266 11.9049 10.115C11.9672 10.0034 11.9999 9.87772 12 9.74992V0.749625Z" fill="#989898"/>
</svg>
