<svg width="18" height="20" viewBox="0 0 18 20" fill="none" xmlns="http://www.w3.org/2000/svg">
<path d="M11.8336 4.96155L5.44739 11.5654C5.26216 11.7504 5.11442 11.9717 5.01278 12.2164C4.91114 12.461 4.85764 12.7242 4.8554 12.9904C4.85317 13.2567 4.90223 13.5208 4.99975 13.7673C5.09726 14.0137 5.24126 14.2376 5.42335 14.4259C5.60544 14.6142 5.82197 14.7631 6.06031 14.864C6.29864 14.9648 6.55401 15.0155 6.81152 15.0132C7.06902 15.0109 7.3235 14.9556 7.56011 14.8505C7.79671 14.7454 8.01071 14.5926 8.1896 14.4011L14.409 7.79722C15.1156 7.04076 15.5065 6.02762 15.4977 4.97599C15.4889 3.92436 15.0809 2.91839 14.3618 2.17475C13.6427 1.43111 12.6698 1.00929 11.6529 1.00015C10.6359 0.991013 9.65614 1.39528 8.92461 2.12589L2.7042 8.72873C1.61302 9.8571 1 11.3875 1 12.9832C1 14.579 1.61302 16.1094 2.7042 17.2377C3.79538 18.3661 5.27533 19 6.8185 19C8.36166 19 9.84161 18.3661 10.9328 17.2377L17 10.9778" stroke="#BEC0C3" stroke-width="2" stroke-linecap="round" stroke-linejoin="round"/>
</svg>
