<svg width="28" height="28" viewBox="0 0 28 28" fill="none" xmlns="http://www.w3.org/2000/svg">
<path d="M3.19224 19.0537V9.03053H2.00528C1.45621 8.99445 1.03028 8.60756 1.03028 8.13647C1.03028 7.66538 1.45621 7.27448 2.00528 7.24441H3.19224V4.51611C3.19224 2.57764 4.7809 1 6.73292 1H23.4593C25.4134 1 27 2.57764 27 4.51611V23.4799C27.0005 23.942 26.9093 24.3996 26.7316 24.8267C26.5539 25.2537 26.2932 25.6418 25.9644 25.9687C25.6355 26.2957 25.245 26.555 24.8152 26.732C24.3854 26.9089 23.9246 27 23.4593 27H6.73292C5.79404 26.9995 4.89376 26.6289 4.22987 25.9696C3.56598 25.3103 3.19277 24.4163 3.19224 23.4839V20.926H2.00528C1.4441 20.9059 1 20.493 1 19.9898C1 19.4887 1.4441 19.0737 2.00528 19.0537H3.19224ZM4.92826 19.0537H5.93758C6.48866 19.0877 6.9146 19.4947 6.9146 19.9898C6.9146 20.483 6.48866 20.8919 5.93758 20.926H4.92826V23.6262C4.92826 24.5463 5.68121 25.2921 6.60373 25.2921H23.5885C24.513 25.2921 25.264 24.5463 25.264 23.6262V4.37379C25.2624 3.933 25.0853 3.51071 24.7715 3.19902C24.4576 2.88734 24.0324 2.71153 23.5885 2.70995H6.60575V2.70794C6.16171 2.709 5.73617 2.88464 5.42219 3.19644C5.10821 3.50824 4.93135 3.93083 4.93028 4.37178V7.24642H5.93758C6.51491 7.24642 6.98323 7.64734 6.98323 8.13847C6.98121 8.62961 6.51289 9.02853 5.93758 9.02853H4.92826V19.0537ZM19.3776 9.03053H10.4472C10.1776 9.02031 9.92092 8.91349 9.72453 8.72984C9.63592 8.64794 9.56663 8.54761 9.52162 8.43602C9.4766 8.32444 9.45697 8.20435 9.46413 8.08435C9.49643 7.63331 9.91832 7.27248 10.4472 7.24642H19.3776C19.9529 7.24642 20.4273 7.64734 20.4273 8.13847C20.4213 8.62961 19.955 9.02853 19.3776 9.02853V9.03053ZM19.3776 14.9362H10.4472C9.89208 14.9081 9.45807 14.4971 9.45807 14C9.45807 13.5029 9.89208 13.0919 10.4472 13.0638H19.3776C19.9328 13.0919 20.3668 13.5029 20.3668 14C20.3668 14.4971 19.9328 14.9081 19.3776 14.9362ZM19.3776 20.926H10.1484C9.87723 20.9135 9.62037 20.8013 9.42779 20.6113C9.3384 20.5232 9.26894 20.4172 9.22404 20.3004C9.17914 20.1835 9.15983 20.0585 9.16739 19.9337C9.19767 19.4606 9.61957 19.0817 10.1484 19.0537H19.3756C19.6473 19.0649 19.905 19.1764 20.0983 19.3664C20.1884 19.4544 20.2585 19.5607 20.3037 19.6779C20.349 19.7951 20.3684 19.9206 20.3607 20.046C20.3304 20.519 19.9085 20.8979 19.3776 20.926Z" fill="#BEC0C3" stroke="#BEC0C3"/>
</svg>
