<svg width="25" height="30" viewBox="0 0 25 30" fill="none" xmlns="http://www.w3.org/2000/svg">
<path d="M23 7.5C23 10.5376 18.299 13 12.5 13C6.70101 13 2 10.5376 2 7.5M23 7.5C23 4.46243 18.299 2 12.5 2C6.70101 2 2 4.46243 2 7.5M23 7.5V22.5C23 25.5376 18.299 28 12.5 28C6.70101 28 2 25.5376 2 22.5V7.5M23 7.5V12.5M2 7.5V12.5M23 12.5V17.5C23 20.5376 18.299 23 12.5 23C6.70101 23 2 20.5376 2 17.5V12.5M23 12.5C23 15.5376 18.299 18 12.5 18C6.70101 18 2 15.5376 2 12.5" stroke="#BEC0C3" stroke-width="2.5" stroke-linecap="round" stroke-linejoin="round"/>
</svg>
