<svg width="12" height="12" viewBox="0 0 12 12" fill="none" xmlns="http://www.w3.org/2000/svg">
<path fill-rule="evenodd" clip-rule="evenodd" d="M3 0C2.80109 0 2.61032 0.0790176 2.46967 0.21967C2.32902 0.360322 2.25 0.551088 2.25 0.75V1.5H1.5C1.10218 1.5 0.720644 1.65804 0.43934 1.93934C0.158035 2.22064 0 2.60218 0 3V10.5C0 10.8978 0.158035 11.2794 0.43934 11.5607C0.720644 11.842 1.10218 12 1.5 12H10.5C10.8978 12 11.2794 11.842 11.5607 11.5607C11.842 11.2794 12 10.8978 12 10.5V3C12 2.60218 11.842 2.22064 11.5607 1.93934C11.2794 1.65804 10.8978 1.5 10.5 1.5H9.75V0.75C9.75 0.551088 9.67098 0.360322 9.53033 0.21967C9.38968 0.0790176 9.19891 0 9 0C8.80109 0 8.61032 0.0790176 8.46967 0.21967C8.32902 0.360322 8.25 0.551088 8.25 0.75V1.5H3.75V0.75C3.75 0.551088 3.67098 0.360322 3.53033 0.21967C3.38968 0.0790176 3.19891 0 3 0ZM3 3.75C2.80109 3.75 2.61032 3.82902 2.46967 3.96967C2.32902 4.11032 2.25 4.30109 2.25 4.5C2.25 4.69891 2.32902 4.88968 2.46967 5.03033C2.61032 5.17098 2.80109 5.25 3 5.25H9C9.19891 5.25 9.38968 5.17098 9.53033 5.03033C9.67098 4.88968 9.75 4.69891 9.75 4.5C9.75 4.30109 9.67098 4.11032 9.53033 3.96967C9.38968 3.82902 9.19891 3.75 9 3.75H3Z" fill="#989898"/>
</svg>
