<svg width="30" height="30" viewBox="0 0 30 30" fill="none" xmlns="http://www.w3.org/2000/svg">
<path d="M22.2222 7.77778H25.1111C25.8773 7.77778 26.6121 8.08214 27.1539 8.62391C27.6956 9.16569 28 9.90049 28 10.6667V19.3333C28 20.0995 27.6956 20.8343 27.1539 21.3761C26.6121 21.9179 25.8773 22.2222 25.1111 22.2222H22.2222V28L16.4444 22.2222H10.6667C10.2873 22.2226 9.9115 22.148 9.56099 22.0028C9.21049 21.8575 8.89213 21.6444 8.62422 21.3758M8.62422 21.3758L13.5556 16.4444H19.3333C20.0995 16.4444 20.8343 16.1401 21.3761 15.5983C21.9179 15.0565 22.2222 14.3217 22.2222 13.5556V4.88889C22.2222 4.12271 21.9179 3.38791 21.3761 2.84614C20.8343 2.30436 20.0995 2 19.3333 2H4.88889C4.12271 2 3.38791 2.30436 2.84614 2.84614C2.30436 3.38791 2 4.12271 2 4.88889V13.5556C2 14.3217 2.30436 15.0565 2.84614 15.5983C3.38791 16.1401 4.12271 16.4444 4.88889 16.4444H7.77778V22.2222L8.62422 21.3758Z" stroke="#BEC0C3" stroke-width="2.5" stroke-linecap="round" stroke-linejoin="round"/>
</svg>
