<svg width="43" height="43" viewBox="0 0 43 43" fill="none" xmlns="http://www.w3.org/2000/svg">
<path d="M32.3333 10.6667H36.6667C37.8159 10.6667 38.9181 11.1232 39.7308 11.9359C40.5435 12.7485 41 13.8507 41 15V28C41 29.1493 40.5435 30.2515 39.7308 31.0641C38.9181 31.8768 37.8159 32.3333 36.6667 32.3333H32.3333V41L23.6667 32.3333H15C14.4309 32.3339 13.8672 32.2221 13.3415 32.0042C12.8157 31.7863 12.3382 31.4667 11.9363 31.0637M11.9363 31.0637L19.3333 23.6667H28C29.1493 23.6667 30.2515 23.2101 31.0641 22.3975C31.8768 21.5848 32.3333 20.4826 32.3333 19.3333V6.33333C32.3333 5.18406 31.8768 4.08186 31.0641 3.2692C30.2515 2.45655 29.1493 2 28 2H6.33333C5.18406 2 4.08186 2.45655 3.2692 3.2692C2.45655 4.08186 2 5.18406 2 6.33333V19.3333C2 20.4826 2.45655 21.5848 3.2692 22.3975C4.08186 23.2101 5.18406 23.6667 6.33333 23.6667H10.6667V32.3333L11.9363 31.0637Z" stroke="white" stroke-width="2.5" stroke-linecap="round" stroke-linejoin="round"/>
</svg>
