<svg width="32" height="30" viewBox="0 0 32 30" fill="none" xmlns="http://www.w3.org/2000/svg">
<path d="M1.672 15L4.89926 12.1111M4.89926 12.1111L16.1947 2L27.4901 12.1111M4.89926 12.1111V26.5556C4.89926 26.9386 5.06926 27.306 5.37188 27.5769C5.67449 27.8478 6.08492 28 6.51289 28H11.3538M27.4901 12.1111L30.7173 15M27.4901 12.1111V26.5556C27.4901 26.9386 27.3201 27.306 27.0175 27.5769C26.7148 27.8478 26.3044 28 25.8764 28H21.0356M11.3538 28C11.7817 28 12.1922 27.8478 12.4948 27.5769C12.7974 27.306 12.9674 26.9386 12.9674 26.5556V20.7778C12.9674 20.3947 13.1374 20.0273 13.44 19.7564C13.7426 19.4855 14.1531 19.3333 14.581 19.3333H17.8083C18.2363 19.3333 18.6467 19.4855 18.9493 19.7564C19.2519 20.0273 19.4219 20.3947 19.4219 20.7778V26.5556C19.4219 26.9386 19.5919 27.306 19.8945 27.5769C20.1972 27.8478 20.6076 28 21.0356 28M11.3538 28H21.0356" stroke="#BEC0C3" stroke-width="2.5" stroke-linecap="round" stroke-linejoin="round"/>
</svg>
