<svg width="99" height="99" viewBox="0 0 99 99" fill="none" xmlns="http://www.w3.org/2000/svg">
<path fill-rule="evenodd" clip-rule="evenodd" d="M99 49.5C99 62.6282 93.7848 75.2187 84.5018 84.5018C75.2187 93.7848 62.6282 99 49.5 99C36.3718 99 23.7813 93.7848 14.4982 84.5018C5.21517 75.2187 0 62.6282 0 49.5C0 36.3718 5.21517 23.7813 14.4982 14.4982C23.7813 5.21517 36.3718 0 49.5 0C62.6282 0 75.2187 5.21517 84.5018 14.4982C93.7848 23.7813 99 36.3718 99 49.5ZM61.875 30.9375C61.875 34.2196 60.5712 37.3672 58.2504 39.6879C55.9297 42.0087 52.7821 43.3125 49.5 43.3125C46.2179 43.3125 43.0703 42.0087 40.7496 39.6879C38.4288 37.3672 37.125 34.2196 37.125 30.9375C37.125 27.6554 38.4288 24.5078 40.7496 22.1871C43.0703 19.8663 46.2179 18.5625 49.5 18.5625C52.7821 18.5625 55.9297 19.8663 58.2504 22.1871C60.5712 24.5078 61.875 27.6554 61.875 30.9375ZM49.5 55.6875C43.5761 55.6863 37.7764 57.3859 32.7901 60.5843C27.8039 63.7827 23.8407 68.3454 21.3716 73.7303C24.8532 77.7806 29.1696 81.03 34.0247 83.2558C38.8799 85.4815 44.159 86.6308 49.5 86.625C54.841 86.6308 60.1201 85.4815 64.9753 83.2558C69.8305 81.03 74.1468 77.7806 77.6284 73.7303C75.1593 68.3454 71.1961 63.7827 66.2099 60.5843C61.2236 57.3859 55.4239 55.6863 49.5 55.6875Z" fill="#333333" fill-opacity="0.5"/>
</svg>
