<svg width="30" height="30" viewBox="0 0 30 30" fill="none" xmlns="http://www.w3.org/2000/svg">
<path d="M25.1111 13.5556H4.88889M25.1111 13.5556C25.8773 13.5556 26.6121 13.8599 27.1539 14.4017C27.6956 14.9435 28 15.6783 28 16.4444V25.1111C28 25.8773 27.6956 26.6121 27.1539 27.1539C26.6121 27.6956 25.8773 28 25.1111 28H4.88889C4.12271 28 3.38791 27.6956 2.84614 27.1539C2.30436 26.6121 2 25.8773 2 25.1111V16.4444C2 15.6783 2.30436 14.9435 2.84614 14.4017C3.38791 13.8599 4.12271 13.5556 4.88889 13.5556M25.1111 13.5556V10.6667C25.1111 9.90049 24.8067 9.16569 24.265 8.62391C23.7232 8.08214 22.9884 7.77778 22.2222 7.77778M4.88889 13.5556V10.6667C4.88889 9.90049 5.19325 9.16569 5.73502 8.62391C6.2768 8.08214 7.0116 7.77778 7.77778 7.77778M22.2222 7.77778V4.88889C22.2222 4.12271 21.9179 3.38791 21.3761 2.84614C20.8343 2.30436 20.0995 2 19.3333 2H10.6667C9.90049 2 9.16569 2.30436 8.62391 2.84614C8.08214 3.38791 7.77778 4.12271 7.77778 4.88889V7.77778M22.2222 7.77778H7.77778" stroke="#BEC0C3" stroke-width="2.5" stroke-linecap="round" stroke-linejoin="round"/>
</svg>
