<svg width="53" height="53" viewBox="0 0 53 53" fill="none" xmlns="http://www.w3.org/2000/svg">
<path d="M44.7778 23.8889H8.22222M44.7778 23.8889C46.1628 23.8889 47.4911 24.4391 48.4704 25.4184C49.4498 26.3978 50 27.7261 50 29.1111V44.7778C50 46.1628 49.4498 47.4911 48.4704 48.4704C47.4911 49.4498 46.1628 50 44.7778 50H8.22222C6.8372 50 5.50891 49.4498 4.52955 48.4704C3.5502 47.4911 3 46.1628 3 44.7778V29.1111C3 27.7261 3.5502 26.3978 4.52955 25.4184C5.50891 24.4391 6.8372 23.8889 8.22222 23.8889M44.7778 23.8889V18.6667C44.7778 17.2816 44.2276 15.9534 43.2482 14.974C42.2689 13.9946 40.9406 13.4444 39.5556 13.4444M8.22222 23.8889V18.6667C8.22222 17.2816 8.77242 15.9534 9.75178 14.974C10.7311 13.9946 12.0594 13.4444 13.4444 13.4444M39.5556 13.4444V8.22222C39.5556 6.8372 39.0054 5.50891 38.026 4.52955C37.0466 3.5502 35.7184 3 34.3333 3H18.6667C17.2816 3 15.9534 3.5502 14.974 4.52955C13.9946 5.50891 13.4444 6.8372 13.4444 8.22222V13.4444M39.5556 13.4444H13.4444" stroke="#147DC8" stroke-width="5.63" stroke-linecap="round" stroke-linejoin="round"/>
</svg>
