<svg width="18" height="19" viewBox="0 0 18 19" fill="none" xmlns="http://www.w3.org/2000/svg">
<path d="M13.9426 1.14534L13.9427 1.1454L13.9487 1.13911C14.1397 0.938695 14.3678 0.779215 14.6195 0.669637C14.8712 0.560064 15.1417 0.502487 15.4152 0.500079C15.6887 0.49767 15.9601 0.550475 16.2136 0.655585C16.4671 0.760701 16.6979 0.916115 16.8923 1.1131C17.0867 1.3101 17.2407 1.54473 17.3452 1.80347C17.4497 2.06222 17.5023 2.33969 17.4999 2.61963C17.4975 2.89957 17.4401 3.17605 17.3313 3.4329C17.2224 3.68973 17.0643 3.92157 16.8666 4.11508L16.8666 4.11503L16.8605 4.12122L16.1986 4.79197L13.2714 1.82557L13.9426 1.14534ZM0.5 14.7681L10.7542 4.3765L13.6825 7.343L3.42059 17.7412H0.5V14.7681Z" fill="#333333" stroke="black"/>
</svg>
