<svg width="51" height="51" viewBox="0 0 51 51" fill="none" xmlns="http://www.w3.org/2000/svg">
<path d="M38 23H13M33 23V28M35.5 13H15.5V5.5C15.5 4.83696 15.7634 4.20107 16.2322 3.73223C16.7011 3.26339 17.337 3 18 3H33C33.663 3 34.2989 3.26339 34.7678 3.73223C35.2366 4.20107 35.5 4.83696 35.5 5.5V13ZM48 45.5V15.5C48 14.837 47.7366 14.2011 47.2678 13.7322C46.7989 13.2634 46.163 13 45.5 13H5.5C4.83696 13 4.20107 13.2634 3.73223 13.7322C3.26339 14.2011 3 14.837 3 15.5V45.5C3 46.163 3.26339 46.7989 3.73223 47.2678C4.20107 47.7366 4.83696 48 5.5 48H45.5C46.163 48 46.7989 47.7366 47.2678 47.2678C47.7366 46.7989 48 46.163 48 45.5Z" stroke="#147DC8" stroke-width="5" stroke-linecap="round" stroke-linejoin="round"/>
</svg>
