<svg width="29" height="30" viewBox="0 0 29 30" fill="none" xmlns="http://www.w3.org/2000/svg">
<path d="M8.55035 7.77778V2M20.1059 7.77778V2M7.1059 13.5556H21.5503M4.21701 28H24.4392C25.2054 28 25.9402 27.6956 26.482 27.1539C27.0238 26.6121 27.3281 25.8773 27.3281 25.1111V7.77778C27.3281 7.0116 27.0238 6.2768 26.482 5.73502C25.9402 5.19325 25.2054 4.88889 24.4392 4.88889H4.21701C3.45083 4.88889 2.71603 5.19325 2.17426 5.73502C1.63249 6.2768 1.32813 7.0116 1.32812 7.77778V25.1111C1.32813 25.8773 1.63249 26.6121 2.17426 27.1539C2.71603 27.6956 3.45083 28 4.21701 28Z" stroke="#BEC0C3" stroke-width="2.5" stroke-linecap="round" stroke-linejoin="round"/>
</svg>
