<svg width="37" height="34" viewBox="0 0 37 34" fill="none" xmlns="http://www.w3.org/2000/svg">
<path fill-rule="evenodd" clip-rule="evenodd" d="M14.2476 2.49138C16.1139 -0.83046 20.8885 -0.83046 22.7524 2.49138L36.366 26.7213C38.1958 29.9796 35.8463 34 32.116 34H4.88639C1.15363 34 -1.19581 29.9796 0.633974 26.7213L14.2476 2.49138ZM20.9397 26.6749C20.9397 27.3227 20.6827 27.9439 20.2251 28.402C19.7676 28.86 19.147 29.1174 18.5 29.1174C17.8529 29.1174 17.2324 28.86 16.7748 28.402C16.3173 27.9439 16.0603 27.3227 16.0603 26.6749C16.0603 26.0271 16.3173 25.4058 16.7748 24.9477C17.2324 24.4897 17.8529 24.2323 18.5 24.2323C19.147 24.2323 19.7676 24.4897 20.2251 24.9477C20.6827 25.4058 20.9397 26.0271 20.9397 26.6749ZM18.5 7.13463C17.8529 7.13463 17.2324 7.39196 16.7748 7.85003C16.3173 8.30809 16.0603 8.92936 16.0603 9.57716V16.9047C16.0603 17.5525 16.3173 18.1738 16.7748 18.6319C17.2324 19.0899 17.8529 19.3473 18.5 19.3473C19.147 19.3473 19.7676 19.0899 20.2251 18.6319C20.6827 18.1738 20.9397 17.5525 20.9397 16.9047V9.57716C20.9397 8.92936 20.6827 8.30809 20.2251 7.85003C19.7676 7.39196 19.147 7.13463 18.5 7.13463Z" fill="#EA4E2C"/>
</svg>
