<svg width="28" height="31" viewBox="0 0 28 31" fill="none" xmlns="http://www.w3.org/2000/svg">
<path d="M7.5 7.44444V20.3333C7.5 21.1879 7.84241 22.0075 8.4519 22.6118C9.0614 23.2161 9.88805 23.5556 10.75 23.5556H20.5M7.5 7.44444V4.22222C7.5 3.36764 7.84241 2.54805 8.4519 1.94377C9.0614 1.33948 9.88805 1 10.75 1H18.2023C18.6332 1.00009 19.0464 1.16989 19.3511 1.47206L26.5239 8.5835C26.8286 8.88557 26.9999 9.2953 27 9.72256V20.3333C27 21.1879 26.6576 22.0075 26.0481 22.6118C25.4386 23.2161 24.612 23.5556 23.75 23.5556H20.5M7.5 7.44444H4.25C3.38805 7.44444 2.5614 7.78393 1.9519 8.38821C1.34241 8.9925 1 9.81208 1 10.6667V26.7778C1 27.6324 1.34241 28.4519 1.9519 29.0562C2.5614 29.6605 3.38805 30 4.25 30H17.25C18.112 30 18.9386 29.6605 19.5481 29.0562C20.1576 28.4519 20.5 27.6324 20.5 26.7778V23.5556" stroke="#BEC0C3" stroke-width="2" stroke-linecap="round" stroke-linejoin="round"/>
</svg>
