<svg width="28" height="28" viewBox="0 0 28 28" fill="none" xmlns="http://www.w3.org/2000/svg">
<path d="M1 20.5L8.45225 13.0477C9.06172 12.4385 9.88822 12.0962 10.75 12.0962C11.6118 12.0962 12.4383 12.4385 13.0477 13.0477L20.5 20.5M17.25 17.25L19.8273 14.6727C20.4367 14.0635 21.2632 13.7212 22.125 13.7212C22.9868 13.7212 23.8133 14.0635 24.4227 14.6727L27 17.25M17.25 7.5H17.2663M4.25 27H23.75C24.612 27 25.4386 26.6576 26.0481 26.0481C26.6576 25.4386 27 24.612 27 23.75V4.25C27 3.38805 26.6576 2.5614 26.0481 1.9519C25.4386 1.34241 24.612 1 23.75 1H4.25C3.38805 1 2.5614 1.34241 1.9519 1.9519C1.34241 2.5614 1 3.38805 1 4.25V23.75C1 24.612 1.34241 25.4386 1.9519 26.0481C2.5614 26.6576 3.38805 27 4.25 27Z" stroke="#BEC0C3" stroke-width="2" stroke-linecap="round" stroke-linejoin="round"/>
</svg>
