<svg width="12" height="12" viewBox="0 0 12 12" fill="none" xmlns="http://www.w3.org/2000/svg">
<path fill-rule="evenodd" clip-rule="evenodd" d="M3 2.90909V2.18182C3 1.60316 3.23705 1.04821 3.65901 0.639039C4.08097 0.229869 4.65326 0 5.25 0H6.75C7.34674 0 7.91903 0.229869 8.34099 0.639039C8.76295 1.04821 9 1.60316 9 2.18182V2.90909H10.5C10.8978 2.90909 11.2794 3.06233 11.5607 3.33511C11.842 3.60789 12 3.97786 12 4.36363V6.95999C10.0797 7.64998 8.04787 8.00216 6 7.99999C3.95212 8.0022 1.92027 7.65001 0 6.95999V4.36363C0 3.97786 0.158035 3.60789 0.43934 3.33511C0.720644 3.06233 1.10218 2.90909 1.5 2.90909H3ZM4.5 2.18182C4.5 1.98893 4.57902 1.80395 4.71967 1.66756C4.86032 1.53117 5.05109 1.45454 5.25 1.45454H6.75C6.94891 1.45454 7.13968 1.53117 7.28033 1.66756C7.42098 1.80395 7.5 1.98893 7.5 2.18182V2.90909H4.5V2.18182ZM5.25 5.81817C5.25 5.62529 5.32902 5.44031 5.46967 5.30392C5.61032 5.16753 5.80109 5.0909 6 5.0909H6.0075C6.20641 5.0909 6.39718 5.16753 6.53783 5.30392C6.67848 5.44031 6.7575 5.62529 6.7575 5.81817C6.7575 6.01106 6.67848 6.19604 6.53783 6.33243C6.39718 6.46882 6.20641 6.54545 6.0075 6.54545H6C5.80109 6.54545 5.61032 6.46882 5.46967 6.33243C5.32902 6.19604 5.25 6.01106 5.25 5.81817Z" fill="#989898"/>
<path d="M0 9V10.6072C0 10.9766 0.158035 11.3309 0.43934 11.5921C0.720644 11.8533 1.10218 12 1.5 12H10.5C10.8978 12 11.2794 11.8533 11.5607 11.5921C11.842 11.3309 12 10.9766 12 10.6072V9C10.0668 9.60499 8.04008 9.91266 6 9.91086C3.903 9.91086 1.88475 9.59053 0 9Z" fill="#989898"/>
</svg>
