<svg width="29" height="30" viewBox="0 0 29 30" fill="none" xmlns="http://www.w3.org/2000/svg">
<path d="M27.3281 18.2572C23.1977 19.9273 18.7834 20.7832 14.3281 20.7778C9.73046 20.7778 5.34368 19.8822 1.32812 18.2572M20.1059 7.77778V4.88889C20.1059 4.12271 19.8015 3.38791 19.2598 2.84614C18.718 2.30436 17.9832 2 17.217 2H11.4392C10.6731 2 9.93826 2.30436 9.39648 2.84614C8.85471 3.38791 8.55035 4.12271 8.55035 4.88889V7.77778M14.3281 16.4444H14.3426M4.21701 28H24.4392C25.2054 28 25.9402 27.6956 26.482 27.1539C27.0238 26.6121 27.3281 25.8773 27.3281 25.1111V10.6667C27.3281 9.90049 27.0238 9.16569 26.482 8.62391C25.9402 8.08214 25.2054 7.77778 24.4392 7.77778H4.21701C3.45083 7.77778 2.71603 8.08214 2.17426 8.62391C1.63249 9.16569 1.32813 9.90049 1.32812 10.6667V25.1111C1.32813 25.8773 1.63249 26.6121 2.17426 27.1539C2.71603 27.6956 3.45083 28 4.21701 28Z" stroke="#BEC0C3" stroke-width="2.5" stroke-linecap="round" stroke-linejoin="round"/>
</svg>
