<svg width="30" height="26" viewBox="0 0 30 26" fill="none" xmlns="http://www.w3.org/2000/svg">
<path d="M16.4298 23.715L24.4791 15.7353L26.6355 13.5976H23.5991H1.87502C1.70577 13.5976 1.54561 13.5308 1.42922 13.4154C1.31319 13.3004 1.25 13.1467 1.25 12.9888C1.25 12.8308 1.31319 12.6771 1.42922 12.5621C1.54561 12.4467 1.70577 12.38 1.87502 12.38H23.5991H26.6355L24.4791 10.2423L16.4394 2.27212C16.3304 2.15727 16.2719 2.00719 16.2733 1.85361C16.2746 1.69744 16.3377 1.54587 16.4525 1.43215C16.5675 1.31807 16.7254 1.25147 16.8927 1.25002C17.0573 1.24861 17.214 1.3104 17.3306 1.4192L28.5708 12.5622C28.5709 12.5622 28.5709 12.5623 28.571 12.5623C28.6869 12.6773 28.75 12.8309 28.75 12.9888C28.75 13.1466 28.6869 13.3002 28.571 13.4152L16.4298 23.715ZM16.4298 23.715C16.3138 23.83 16.2506 23.9837 16.2506 24.1416M16.4298 23.715L16.2506 24.1416M16.2506 24.1416C16.2506 24.2994 16.3137 24.4529 16.4295 24.5679L16.2506 24.1416ZM17.321 24.5679L28.5708 13.4154L16.4298 24.5682C16.5461 24.6834 16.7061 24.75 16.8752 24.75C17.0444 24.75 17.2045 24.6833 17.3208 24.5681C17.3209 24.568 17.3209 24.568 17.321 24.5679Z" fill="#BEC0C3" stroke="#BEC0C3" stroke-width="2.5"/>
</svg>
