<svg width="31" height="28" viewBox="0 0 31 28" fill="none" xmlns="http://www.w3.org/2000/svg">
<path d="M13.8889 20.5L7.44444 14M7.44444 14L13.8889 7.5M7.44444 14H30M21.9444 20.5V22.125C21.9444 23.4179 21.4352 24.6579 20.5288 25.5721C19.6224 26.4864 18.393 27 17.1111 27H5.83333C4.55145 27 3.32208 26.4864 2.41565 25.5721C1.50922 24.6579 1 23.4179 1 22.125V5.875C1 4.58207 1.50922 3.34209 2.41565 2.42785C3.32208 1.51361 4.55145 1 5.83333 1H17.1111C18.393 1 19.6224 1.51361 20.5288 2.42785C21.4352 3.34209 21.9444 4.58207 21.9444 5.875V7.5" stroke="#BEC0C3" stroke-width="2" stroke-linecap="round" stroke-linejoin="round"/>
</svg>
