<svg width="27" height="30" viewBox="0 0 27 30" fill="none" xmlns="http://www.w3.org/2000/svg">
<path d="M17.8125 22.2222H25L22.9803 20.1928C22.7091 19.9202 22.494 19.5966 22.3472 19.2404C22.2004 18.8843 22.1249 18.5026 22.125 18.1171V13.5556C22.1252 11.7629 21.5724 10.0143 20.5426 8.55039C19.5129 7.08652 18.0569 5.97939 16.375 5.38144V4.88889C16.375 4.12271 16.0721 3.38791 15.5329 2.84614C14.9938 2.30436 14.2625 2 13.5 2C12.7375 2 12.0062 2.30436 11.4671 2.84614C10.9279 3.38791 10.625 4.12271 10.625 4.88889V5.38144C7.27563 6.57167 4.875 9.78267 4.875 13.5556V18.1186C4.875 18.8957 4.56738 19.6424 4.01969 20.1928L2 22.2222H9.1875M17.8125 22.2222V23.6667C17.8125 24.8159 17.3581 25.9181 16.5494 26.7308C15.7406 27.5435 14.6437 28 13.5 28C12.3563 28 11.2594 27.5435 10.4506 26.7308C9.64185 25.9181 9.1875 24.8159 9.1875 23.6667V22.2222M17.8125 22.2222H9.1875" stroke="#BEC0C3" stroke-width="2.5" stroke-linecap="round" stroke-linejoin="round"/>
</svg>
