<svg width="25" height="28" viewBox="0 0 25 28" fill="none" xmlns="http://www.w3.org/2000/svg">
<path d="M22.5625 6.75L21.3162 24.2041C21.2646 24.9295 20.94 25.6083 20.4079 26.1039C19.8757 26.5995 19.1755 26.875 18.4484 26.875H6.55162C5.82445 26.875 5.12428 26.5995 4.59215 26.1039C4.06001 25.6083 3.73544 24.9295 3.68381 24.2041L2.4375 6.75M9.625 12.5V21.125M15.375 12.5V21.125M16.8125 6.75V2.4375C16.8125 2.05625 16.661 1.69062 16.3915 1.42103C16.1219 1.15145 15.7562 1 15.375 1H9.625C9.24375 1 8.87812 1.15145 8.60853 1.42103C8.33895 1.69062 8.1875 2.05625 8.1875 2.4375V6.75M1 6.75H24" stroke="#BEC0C3" stroke-width="2" stroke-linecap="round" stroke-linejoin="round"/>
</svg>
