<svg width="27" height="30" viewBox="0 0 27 30" fill="none" xmlns="http://www.w3.org/2000/svg">
<path d="M7.75 7.77778V19.3333C7.75 20.0995 8.0529 20.8343 8.59207 21.3761C9.13124 21.9179 9.8625 22.2222 10.625 22.2222H19.25M7.75 7.77778V4.88889C7.75 4.12271 8.0529 3.38791 8.59207 2.84614C9.13124 2.30436 9.8625 2 10.625 2H17.2174C17.5986 2.00008 17.9642 2.15232 18.2337 2.42322L24.5788 8.799C24.8484 9.06982 24.9999 9.43716 25 9.82022V19.3333C25 20.0995 24.6971 20.8343 24.1579 21.3761C23.6188 21.9179 22.8875 22.2222 22.125 22.2222H19.25M7.75 7.77778H4.875C4.1125 7.77778 3.38123 8.08214 2.84207 8.62391C2.3029 9.16569 2 9.90049 2 10.6667V25.1111C2 25.8773 2.3029 26.6121 2.84207 27.1539C3.38123 27.6956 4.1125 28 4.875 28H16.375C17.1375 28 17.8688 27.6956 18.4079 27.1539C18.9471 26.6121 19.25 25.8773 19.25 25.1111V22.2222" stroke="#BEC0C3" stroke-width="2.5" stroke-linecap="round" stroke-linejoin="round"/>
</svg>
