<svg width="23" height="28" viewBox="0 0 23 28" fill="none" xmlns="http://www.w3.org/2000/svg">
<path d="M17.5 6.77778C17.5 8.31014 16.8679 9.77974 15.7426 10.8633C14.6174 11.9468 13.0913 12.5556 11.5 12.5556C9.9087 12.5556 8.38258 11.9468 7.25736 10.8633C6.13214 9.77974 5.5 8.31014 5.5 6.77778C5.5 5.24542 6.13214 3.77582 7.25736 2.69227C8.38258 1.60873 9.9087 1 11.5 1C13.0913 1 14.6174 1.60873 15.7426 2.69227C16.8679 3.77582 17.5 5.24542 17.5 6.77778ZM11.5 16.8889C8.71523 16.8889 6.04451 17.9542 4.07538 19.8504C2.10625 21.7466 1 24.3184 1 27H22C22 24.3184 20.8938 21.7466 18.9246 19.8504C16.9555 17.9542 14.2848 16.8889 11.5 16.8889Z" stroke="#BEC0C3" stroke-width="2" stroke-linecap="round" stroke-linejoin="round"/>
</svg>
