<svg width="30" height="30" viewBox="0 0 30 30" fill="none" xmlns="http://www.w3.org/2000/svg">
<path d="M5.06367 23.3836C8.09471 21.6703 11.5183 20.7725 15 20.7778C18.6111 20.7778 22.0012 21.7239 24.9363 23.3836M19.3333 12.1111C19.3333 13.2604 18.8768 14.3626 18.0641 15.1752C17.2515 15.9879 16.1493 16.4444 15 16.4444C13.8507 16.4444 12.7485 15.9879 11.9359 15.1752C11.1232 14.3626 10.6667 13.2604 10.6667 12.1111C10.6667 10.9618 11.1232 9.85964 11.9359 9.04698C12.7485 8.23432 13.8507 7.77778 15 7.77778C16.1493 7.77778 17.2515 8.23432 18.0641 9.04698C18.8768 9.85964 19.3333 10.9618 19.3333 12.1111ZM28 15C28 16.7072 27.6637 18.3977 27.0104 19.9749C26.3571 21.5521 25.3995 22.9852 24.1924 24.1924C22.9852 25.3995 21.5521 26.3571 19.9749 27.0104C18.3977 27.6637 16.7072 28 15 28C13.2928 28 11.6023 27.6637 10.0251 27.0104C8.44788 26.3571 7.01477 25.3995 5.80761 24.1924C4.60045 22.9852 3.64288 21.5521 2.98957 19.9749C2.33625 18.3977 2 16.7072 2 15C2 11.5522 3.36964 8.24558 5.80761 5.80761C8.24558 3.36964 11.5522 2 15 2C18.4478 2 21.7544 3.36964 24.1924 5.80761C26.6304 8.24558 28 11.5522 28 15Z" stroke="#BEC0C3" stroke-width="2.5" stroke-linecap="round" stroke-linejoin="round"/>
</svg>
