<svg width="29" height="29" viewBox="0 0 29 29" fill="none" xmlns="http://www.w3.org/2000/svg">
<path d="M12.1016 4.21086H4.17188C3.33065 4.21086 2.52387 4.54504 1.92902 5.13989C1.33418 5.73473 1 6.54151 1 7.38275V24.8281C1 25.6694 1.33418 26.4761 1.92902 27.071C2.52387 27.6658 3.33065 28 4.17188 28H21.6173C22.4585 28 23.2653 27.6658 23.8601 27.071C24.455 26.4761 24.7891 25.6694 24.7891 24.8281V16.8984M22.5466 1.96834C22.8392 1.66539 23.1892 1.42375 23.5762 1.25752C23.9632 1.09128 24.3794 1.00378 24.8006 1.00012C25.2217 0.99646 25.6394 1.07671 26.0292 1.2362C26.419 1.39568 26.7732 1.63121 27.071 1.92902C27.3688 2.22684 27.6043 2.58099 27.7638 2.9708C27.9233 3.36061 28.0035 3.77829 27.9999 4.19945C27.9962 4.62061 27.9087 5.03682 27.7425 5.42381C27.5762 5.81079 27.3346 6.16079 27.0317 6.45338L13.4148 20.0703H8.92971V15.5852L22.5466 1.96834Z" stroke="#BEC0C3" stroke-width="2" stroke-linecap="round" stroke-linejoin="round"/>
</svg>
