<svg width="30" height="30" viewBox="0 0 30 30" fill="none" xmlns="http://www.w3.org/2000/svg">
<path d="M10.6667 28H19.3333M10.6667 28V20.7778M10.6667 28H2.86667C2.38802 28 2 27.612 2 27.1333V21.6444C2 21.1658 2.38802 20.7778 2.86667 20.7778H10.6667M19.3333 28V10.6667M19.3333 28H27.1333C27.612 28 28 27.612 28 27.1333V2.86667C28 2.38802 27.612 2 27.1333 2H20.2C19.7213 2 19.3333 2.38802 19.3333 2.86667V10.6667M10.6667 20.7778V11.5333C10.6667 11.0547 11.0547 10.6667 11.5333 10.6667H19.3333" stroke="#BEC0C3" stroke-width="2.5"/>
</svg>
