<svg width="19" height="20" viewBox="0 0 19 20" fill="none" xmlns="http://www.w3.org/2000/svg">
<path d="M9.48516 12.6998C10.9763 12.6998 12.1852 11.491 12.1852 9.9998C12.1852 8.50864 10.9763 7.2998 9.48516 7.2998C7.99399 7.2998 6.78516 8.50864 6.78516 9.9998C6.78516 11.491 7.99399 12.6998 9.48516 12.6998Z" stroke="#147DC8" stroke-width="2"/>
<path d="M11.0743 1.13702C10.7434 1 10.3241 1 9.4854 1C8.64669 1 8.22738 1 7.89654 1.13702C7.45551 1.31971 7.1051 1.67012 6.9224 2.11117C6.83901 2.31251 6.80637 2.54665 6.7936 2.88819C6.77483 3.39011 6.51743 3.8547 6.08244 4.10584C5.64747 4.35696 5.11643 4.34759 4.67237 4.11288C4.3702 3.95317 4.15111 3.86436 3.93504 3.83592C3.46173 3.7736 2.98306 3.90186 2.60432 4.19248C2.32026 4.41044 2.11059 4.77361 1.69124 5.49994C1.2719 6.22627 1.06223 6.58943 1.01549 6.94442C0.953182 7.41772 1.08144 7.89639 1.37206 8.27515C1.5047 8.44804 1.69113 8.5933 1.98047 8.7751C2.40582 9.0424 2.6795 9.49771 2.67947 10C2.67944 10.5023 2.40577 10.9575 1.98046 11.2247C1.69108 11.4066 1.50463 11.552 1.37197 11.7248C1.08135 12.1036 0.953092 12.5822 1.01541 13.0555C1.06214 13.4105 1.27181 13.7737 1.69116 14.5C2.11051 15.2263 2.32018 15.5895 2.60423 15.8074C2.98297 16.098 3.46164 16.2263 3.93495 16.164C4.151 16.1356 4.37009 16.0467 4.67223 15.8871C5.11632 15.6524 5.6474 15.643 6.08241 15.8941C6.51741 16.1453 6.77483 16.6099 6.7936 17.1119C6.80638 17.4533 6.83901 17.6875 6.9224 17.8889C7.1051 18.3299 7.45551 18.6803 7.89654 18.863C8.22738 19 8.64669 19 9.4854 19C10.3241 19 10.7434 19 11.0743 18.863C11.5153 18.6803 11.8657 18.3299 12.0483 17.8889C12.1318 17.6875 12.1644 17.4533 12.1772 17.1118C12.1959 16.6099 12.4533 16.1453 12.8883 15.8941C13.3233 15.6429 13.8544 15.6524 14.2985 15.8871C14.6006 16.0467 14.8197 16.1355 15.0357 16.1639C15.509 16.2263 15.9877 16.098 16.3664 15.8074C16.6505 15.5894 16.8602 15.2263 17.2795 14.4999C17.6989 13.7736 17.9086 13.4105 17.9553 13.0555C18.0176 12.5822 17.8893 12.1035 17.5987 11.7248C17.4661 11.5519 17.2796 11.4065 16.9902 11.2247C16.565 10.9575 16.2913 10.5022 16.2913 9.99991C16.2913 9.49762 16.565 9.04249 16.9902 8.77528C17.2797 8.59339 17.4661 8.44813 17.5988 8.27515C17.8894 7.89646 18.0177 7.41778 17.9554 6.94447C17.9087 6.58949 17.699 6.22633 17.2796 5.5C16.8603 4.77367 16.6506 4.4105 16.3665 4.19254C15.9878 3.90192 15.5091 3.77367 15.0358 3.83598C14.8198 3.86442 14.6007 3.95322 14.2985 4.11292C13.8544 4.34763 13.3234 4.35702 12.8884 4.10586C12.4533 3.85472 12.1959 3.39009 12.1772 2.88815C12.1644 2.54663 12.1318 2.3125 12.0483 2.11117C11.8657 1.67012 11.5153 1.31971 11.0743 1.13702Z" stroke="#147DC8" stroke-width="2"/>
</svg>
