<svg width="28" height="30" viewBox="0 0 28 30" fill="none" xmlns="http://www.w3.org/2000/svg">
<path d="M14.2567 18.9C16.4106 18.9 18.1567 17.1539 18.1567 15C18.1567 12.8461 16.4106 11.1 14.2567 11.1C12.1028 11.1 10.3567 12.8461 10.3567 15C10.3567 17.1539 12.1028 18.9 14.2567 18.9Z" stroke="#BEC0C3" stroke-width="2.5"/>
<path d="M16.5517 2.19791C16.0738 2 15.4682 2 14.2567 2C13.0452 2 12.4395 2 11.9617 2.19791C11.3246 2.4618 10.8185 2.96795 10.5546 3.60502C10.4341 3.89584 10.387 4.23405 10.3685 4.72739C10.3414 5.45238 9.96962 6.12346 9.34131 6.48621C8.71302 6.84895 7.94595 6.8354 7.30453 6.49639C6.86807 6.26569 6.5516 6.13741 6.23951 6.09633C5.55584 6.00631 4.86442 6.19158 4.31735 6.61136C3.90705 6.92619 3.60419 7.45077 2.99846 8.49991C2.39274 9.54906 2.08988 10.0736 2.02237 10.5864C1.93237 11.27 2.11764 11.9615 2.53742 12.5085C2.72901 12.7583 2.9983 12.9681 3.41623 13.2307C4.03063 13.6168 4.42594 14.2745 4.4259 15C4.42586 15.7255 4.03056 16.3831 3.41622 16.769C2.99823 17.0318 2.72891 17.2417 2.53729 17.4914C2.11751 18.0385 1.93224 18.7298 2.02226 19.4135C2.08975 19.9262 2.39261 20.4509 2.99834 21.5C3.60407 22.5491 3.90693 23.0738 4.31722 23.3885C4.86429 23.8083 5.55571 23.9935 6.23938 23.9036C6.55144 23.8625 6.8679 23.7342 7.30434 23.5036C7.9458 23.1645 8.71291 23.151 9.34126 23.5137C9.9696 23.8765 10.3414 24.5476 10.3685 25.2727C10.387 25.7659 10.4341 26.1042 10.5546 26.395C10.8185 27.032 11.3246 27.5382 11.9617 27.8021C12.4395 28 13.0452 28 14.2567 28C15.4682 28 16.0738 28 16.5517 27.8021C17.1887 27.5382 17.6949 27.032 17.9587 26.395C18.0792 26.1042 18.1264 25.7659 18.1449 25.2726C18.1719 24.5476 18.5437 23.8765 19.172 23.5137C19.8003 23.1509 20.5674 23.1645 21.209 23.5036C21.6454 23.7342 21.9618 23.8624 22.2738 23.9034C22.9575 23.9935 23.6489 23.8083 24.196 23.3885C24.6062 23.0736 24.9091 22.5491 25.5148 21.4999C26.1206 20.4508 26.4235 19.9262 26.491 19.4135C26.5809 18.7298 26.3957 18.0384 25.9759 17.4913C25.7843 17.2416 25.5149 17.0316 25.097 16.769C24.4827 16.3831 24.0874 15.7254 24.0874 14.9999C24.0874 14.2743 24.4827 13.6169 25.097 13.231C25.5151 12.9682 25.7844 12.7584 25.9761 12.5085C26.3958 11.9615 26.5811 11.2701 26.4911 10.5865C26.4236 10.0737 26.1207 9.54914 25.5149 8.5C24.9093 7.45086 24.6064 6.92628 24.1961 6.61145C23.6491 6.19167 22.9576 6.00641 22.2739 6.09642C21.9619 6.1375 21.6455 6.26577 21.209 6.49644C20.5675 6.83547 19.8004 6.84903 19.1721 6.48625C18.5437 6.12348 18.1719 5.45236 18.1449 4.72732C18.1264 4.23402 18.0792 3.89583 17.9587 3.60502C17.6949 2.96795 17.1887 2.4618 16.5517 2.19791Z" stroke="#BEC0C3" stroke-width="2.5"/>
</svg>
