<svg width="37" height="37" viewBox="0 0 37 37" fill="none" xmlns="http://www.w3.org/2000/svg">
<path fill-rule="evenodd" clip-rule="evenodd" d="M18.5 37C23.4065 37 28.1121 35.0509 31.5815 31.5815C35.0509 28.1121 37 23.4065 37 18.5C37 13.5935 35.0509 8.88795 31.5815 5.41852C28.1121 1.9491 23.4065 0 18.5 0C13.5935 0 8.88795 1.9491 5.41852 5.41852C1.9491 8.88795 0 13.5935 0 18.5C0 23.4065 1.9491 28.1121 5.41852 31.5815C8.88795 35.0509 13.5935 37 18.5 37ZM27.0724 15.5099C27.4937 15.0738 27.7268 14.4897 27.7215 13.8833C27.7162 13.277 27.473 12.697 27.0443 12.2682C26.6155 11.8395 26.0355 11.5963 25.4292 11.591C24.8228 11.5857 24.2387 11.8188 23.8026 12.2401L16.1875 19.8551L13.1974 16.8651C12.7613 16.4438 12.1772 16.2107 11.5708 16.216C10.9645 16.2213 10.3845 16.4645 9.95573 16.8932C9.52698 17.322 9.28377 17.902 9.2785 18.5083C9.27323 19.1147 9.50632 19.6988 9.92756 20.1349L14.5526 24.7599C14.9862 25.1935 15.5743 25.437 16.1875 25.437C16.8007 25.437 17.3888 25.1935 17.8224 24.7599L27.0724 15.5099Z" fill="#1EA779"/>
</svg>
