<svg width="56" height="51" viewBox="0 0 56 51" fill="none" xmlns="http://www.w3.org/2000/svg">
<path d="M38 40.5H53M36.75 3.7269C40.4147 5.21038 43 8.80328 43 13C43 17.1967 40.4147 20.7897 36.75 22.273M28 33H18C13.3406 33 11.0109 33 9.17318 33.7612C6.72288 34.7762 4.77615 36.723 3.7612 39.1732C3 41.011 3 43.3405 3 48M31.75 13C31.75 18.5229 27.2728 23 21.75 23C16.2271 23 11.75 18.5229 11.75 13C11.75 7.47715 16.2271 3 21.75 3C27.2728 3 31.75 7.47715 31.75 13Z" stroke="#147DC8" stroke-width="5" stroke-linecap="round" stroke-linejoin="round"/>
</svg>
