<svg width="18" height="18" viewBox="0 0 18 18" fill="none" xmlns="http://www.w3.org/2000/svg">
<path fill-rule="evenodd" clip-rule="evenodd" d="M0.242188 9C0.242188 10.1935 0.68756 11.3381 1.48033 12.182C2.27309 13.0259 3.34832 13.5 4.46946 13.5H7.63991V16.875C7.63991 17.1734 7.75126 17.4595 7.94945 17.6705C8.14764 17.8815 8.41645 18 8.69673 18C8.97702 18 9.24582 17.8815 9.44402 17.6705C9.64221 17.4595 9.75355 17.1734 9.75355 16.875V13.5H12.924C14.0451 13.5 15.1204 13.0259 15.9131 12.182C16.7059 11.3381 17.1513 10.1935 17.1513 9C17.1513 7.80653 16.7059 6.66193 15.9131 5.81802C15.1204 4.97411 14.0451 4.5 12.924 4.5C12.924 3.30653 12.4786 2.16193 11.6859 1.31802C10.8931 0.474106 9.81787 0 8.69673 0C7.57559 0 6.50037 0.474106 5.7076 1.31802C4.91483 2.16193 4.46946 3.30653 4.46946 4.5C3.34832 4.5 2.27309 4.97411 1.48033 5.81802C0.68756 6.66193 0.242188 7.80653 0.242188 9ZM9.75355 13.5H7.63991V8.34075L6.27345 9.79537C6.07413 10.0003 5.80718 10.1137 5.53008 10.1111C5.25299 10.1086 4.98792 9.99026 4.79198 9.78167C4.59604 9.57309 4.48489 9.29092 4.48249 8.99595C4.48008 8.70098 4.5866 8.4168 4.77911 8.20463L7.94956 4.82963C8.14775 4.61872 8.4165 4.50024 8.69673 4.50024C8.97696 4.50024 9.24572 4.61872 9.4439 4.82963L12.6144 8.20463C12.8069 8.4168 12.9134 8.70098 12.911 8.99595C12.9086 9.29092 12.7974 9.57309 12.6015 9.78167C12.4055 9.99026 12.1405 10.1086 11.8634 10.1111C11.5863 10.1137 11.3193 10.0003 11.12 9.79537L9.75355 8.34075V13.5Z" fill="white"/>
</svg>
