<svg width="48" height="48" viewBox="0 0 48 48" fill="none" xmlns="http://www.w3.org/2000/svg">
<path d="M24 6.15934C25.254 4.73764 26.9113 3.73152 28.7512 3.27485C30.5911 2.81818 32.5264 2.93262 34.2997 3.60294C36.073 4.27325 37.6001 5.46766 38.6778 7.02724C39.7555 8.58681 40.3328 10.4376 40.3328 12.3333C40.3328 14.2291 39.7555 16.0799 38.6778 17.6394C37.6001 19.199 36.073 20.3934 34.2997 21.0637C32.5264 21.734 30.5911 21.8485 28.7512 21.3918C26.9113 20.9351 25.254 19.929 24 18.5073M31 45H3V42.6667C3 38.9536 4.475 35.3927 7.10051 32.7672C9.72601 30.1417 13.287 28.6667 17 28.6667C20.713 28.6667 24.274 30.1417 26.8995 32.7672C29.525 35.3927 31 38.9536 31 42.6667V45ZM31 45H45V42.6667C45.0003 40.209 44.3537 37.7945 43.1251 35.666C41.8965 33.5374 40.1292 31.7698 38.0009 30.5408C35.8725 29.3118 33.4582 28.6648 31.0005 28.6647C28.5428 28.6646 26.1284 29.3115 24 30.5403M26.3333 12.3333C26.3333 14.8087 25.35 17.1827 23.5997 18.933C21.8493 20.6833 19.4754 21.6667 17 21.6667C14.5246 21.6667 12.1507 20.6833 10.4003 18.933C8.65 17.1827 7.66667 14.8087 7.66667 12.3333C7.66667 9.85798 8.65 7.48401 10.4003 5.73367C12.1507 3.98333 14.5246 3 17 3C19.4754 3 21.8493 3.98333 23.5997 5.73367C25.35 7.48401 26.3333 9.85798 26.3333 12.3333Z" stroke="#147DC8" stroke-width="5" stroke-linecap="round" stroke-linejoin="round"/>
</svg>
